<svg viewBox="0 0 620 460" xmlns="http://www.w3.org/2000/svg">
  <!-- Row 1 (r=30) -->
  <image href="https://skillicons.dev/icons?i=java&theme=dark"   x="230" y="40"  width="60" height="60"/>
  <image href="https://skillicons.dev/icons?i=py&theme=dark"     x="330" y="40"  width="60" height="60"/>

  <!-- Row 2 (r=34) -->
  <image href="https://skillicons.dev/icons?i=js&theme=dark"       x="126" y="121" width="68" height="68"/>
  <image href="https://skillicons.dev/icons?i=kotlin&theme=dark"   x="226" y="121" width="68" height="68"/>
  <image href="https://skillicons.dev/icons?i=html&theme=dark"     x="326" y="121" width="68" height="68"/>
  <image href="https://skillicons.dev/icons?i=css&theme=dark"      x="426" y="121" width="68" height="68"/>

  <!-- Row 3 (r=40) -->
  <image href="https://skillicons.dev/icons?i=react&theme=dark"    x="70"  y="200" width="80" height="80"/>
  <image href="https://skillicons.dev/icons?i=tailwind&theme=dark" x="170" y="200" width="80" height="80"/>
  <image href="https://skillicons.dev/icons?i=vite&theme=dark"     x="270" y="200" width="80" height="80"/>
  <image href="https://skillicons.dev/icons?i=nodejs&theme=dark"   x="370" y="200" width="80" height="80"/>
  <image href="https://skillicons.dev/icons?i=express&theme=dark"  x="470" y="200" width="80" height="80"/>

  <!-- Row 4 (r=34) -->
  <image href="https://skillicons.dev/icons?i=mongodb&theme=dark"  x="126" y="291" width="68" height="68"/>
  <image href="https://skillicons.dev/icons?i=mysql&theme=dark"    x="226" y="291" width="68" height="68"/>
  <image href="https://skillicons.dev/icons?i=git&theme=dark"      x="326" y="291" width="68" height="68"/>
  <image href="https://skillicons.dev/icons?i=github&theme=dark"   x="426" y="291" width="68" height="68"/>

  <!-- Row 5 (r=30) -->
  <image href="https://skillicons.dev/icons?i=vscode&theme=dark"   x="230" y="380" width="60" height="60"/>
  <image href="https://skillicons.dev/icons?i=vercel&theme=dark"   x="330" y="380" width="60" height="60"/>
</svg>
